# xmcd
#
# Track frame offsets:
#	150
#	16106
#	31722
#	43899
#	59660
#	73543
#	96380
#	109790
#	125654
#	139637
#	156593
#	179338
#	196934
#	213613
#
# Disc length: 2987 seconds
#
# Revision: 0
# Processed by: cddbd v1.5.1PL0 Copyright (c) Steve Scherf et al.
# Submitted via: EasyCDDAExtractor 8.0.1.1
#
DISCID=cf0ba90e
DTITLE=Various Artist - You Rascal You
DYEAR=2002
DGENRE=Blues
TTITLE0=Bradley N. Litwin - Mr. Diddy Wa Diddy
TTITLE1=Bradley N. Litwin - You Rascal You
TTITLE2=Bradley N. Litwin - Woah, Tillie, Take Your Time
TTITLE3=Bradley N. Litwin - Please Consider Me
TTITLE4=Bradley N. Litwin - St. Louis Got Tickled
TTITLE5=Bradley N. Litwin - One Meatball
TTITLE6=Bradley N. Litwin - Too Tight Rag
TTITLE7=Bradley N. Litwin - What Are You Doing New Years Eve?
TTITLE8=Bradley N. Litwin - Wor Shu Op
TTITLE9=Bradley N. Litwin - Louisiana Fairy Tale
TTITLE10=Bradley N. Litwin - Love In Vain
TTITLE11=I Can't Give You Anything But Love - I Can't Give You Anything But Lo
TTITLE11=ve
TTITLE12=Bradley N. Litwin - Baby Please Come Home
TTITLE13=Bradley N. Litwin - You Always Hurt The One You Love
EXTD=
EXTT0=
EXTT1=
EXTT2=
EXTT3=
EXTT4=
EXTT5=
EXTT6=
EXTT7=
EXTT8=
EXTT9=
EXTT10=
EXTT11=
EXTT12=
EXTT13=
PLAYORDER=
